<svg viewBox="0 0 400 414.0276301806589" xmlns="http://www.w3.org/2000/svg"><path id="path0" d="M84.225 79.797 C 84.101 80.199,84.050 80.579,84.111 80.640 C 84.312 80.840,85.059 79.697,84.937 79.377 C 84.738 78.860,84.463 79.022,84.225 79.797 M151.608 120.563 C 151.514 120.709,151.335 121.020,151.210 121.254 C 149.970 123.572,149.078 125.170,148.779 125.611 C 148.580 125.903,147.955 127.003,147.390 128.055 C 146.825 129.107,146.155 130.303,145.901 130.712 C 144.896 132.332,138.281 145.288,136.622 148.884 C 136.191 149.819,135.354 151.620,134.763 152.886 C 134.171 154.151,133.688 155.227,133.688 155.276 C 133.688 155.325,133.343 156.106,132.923 157.013 C 132.502 157.919,131.969 159.139,131.737 159.724 C 131.295 160.841,131.049 161.417,130.312 163.069 C 130.064 163.623,129.862 164.149,129.863 164.238 C 129.864 164.327,129.585 165.117,129.243 165.994 C 127.314 170.945,126.426 173.316,125.862 175.027 C 125.515 176.079,124.976 177.609,124.665 178.427 C 124.118 179.867,120.771 190.509,120.187 192.667 C 118.456 199.063,117.507 203.009,116.582 207.651 C 115.884 211.154,115.699 212.143,115.411 213.921 C 115.279 214.740,115.094 215.816,115.000 216.312 C 114.795 217.406,114.804 217.408,117.185 216.704 C 126.184 214.044,137.814 212.683,145.484 213.393 C 152.982 214.087,156.144 214.569,160.230 215.644 C 161.326 215.932,162.256 216.135,162.296 216.095 C 162.337 216.055,161.624 214.163,160.713 211.890 C 158.834 207.205,158.188 205.394,157.152 201.913 C 156.752 200.569,156.236 198.847,156.005 198.087 C 155.774 197.327,155.270 195.462,154.884 193.943 C 154.074 190.749,154.010 190.612,153.388 190.748 C 145.310 192.514,135.652 193.782,128.769 193.981 L 124.169 194.114 123.615 193.560 C 122.439 192.384,123.080 191.698,125.552 191.489 C 127.654 191.311,129.899 190.786,135.069 189.263 C 137.099 188.665,144.342 186.287,145.058 185.983 C 145.292 185.884,145.770 185.703,146.121 185.581 C 149.749 184.322,152.318 183.287,152.486 183.015 C 152.554 182.905,152.423 181.636,152.195 180.196 C 150.526 169.648,149.635 151.347,150.268 140.622 C 150.881 130.252,151.454 124.070,152.089 120.988 C 152.234 120.286,151.948 120.034,151.608 120.563 M146.756 121.434 C 143.277 125.380,131.956 145.278,127.570 155.154 C 123.332 164.697,119.164 175.736,116.898 183.422 C 116.639 184.299,116.353 185.255,116.262 185.547 C 116.171 185.840,115.978 186.509,115.834 187.035 C 115.690 187.561,115.493 188.231,115.396 188.523 C 115.173 189.192,113.618 195.673,113.304 197.237 C 112.679 200.356,112.428 201.779,112.126 203.932 C 111.822 206.091,111.701 207.006,111.165 211.158 C 110.713 214.665,110.464 218.034,110.630 218.408 C 110.816 218.831,110.823 218.803,111.340 215.515 C 112.096 210.708,112.769 207.227,113.705 203.294 C 114.039 201.892,114.356 200.505,114.411 200.213 C 114.564 199.385,116.378 192.481,117.447 188.656 C 118.757 183.966,123.886 169.052,125.606 164.931 C 125.972 164.054,126.518 162.667,126.819 161.849 C 127.121 161.031,127.583 159.883,127.846 159.299 C 128.688 157.430,129.603 155.294,130.067 154.113 C 131.050 151.614,137.571 138.285,139.905 134.006 C 142.920 128.479,143.979 126.629,146.212 122.991 C 147.008 121.694,147.324 120.790,146.756 121.434 M218.408 130.021 C 218.340 130.693,218.184 132.917,218.062 134.963 C 217.940 137.009,217.748 139.782,217.635 141.126 C 217.523 142.471,217.289 145.914,217.115 148.778 C 216.941 151.642,216.703 155.372,216.586 157.067 C 214.411 188.678,215.849 211.330,221.079 227.825 C 222.836 233.366,227.238 243.268,229.117 245.907 C 229.351 246.236,229.543 246.561,229.543 246.628 C 229.543 246.851,232.768 251.714,234.281 253.773 C 239.037 260.243,246.936 267.272,250.053 267.807 C 250.755 267.927,252.572 268.261,254.091 268.549 C 258.439 269.372,262.169 269.725,267.954 269.860 C 272.770 269.973,273.351 270.025,273.665 270.372 C 274.163 270.923,273.902 271.724,273.117 272.049 C 271.545 272.701,259.485 271.921,254.875 270.869 C 253.273 270.504,253.348 270.508,253.348 270.788 C 253.348 271.164,258.653 273.559,260.503 274.018 L 262.239 274.449 263.049 273.781 C 264.607 272.497,265.361 272.927,266.805 275.924 C 267.930 278.262,268.060 279.232,267.335 279.907 C 266.346 280.828,265.436 280.367,264.411 278.427 C 263.393 276.498,263.177 276.290,262.313 276.407 C 261.882 276.465,260.909 276.557,260.149 276.611 C 259.389 276.666,258.756 276.714,258.741 276.719 C 258.727 276.723,258.655 277.104,258.581 277.565 C 258.281 279.446,255.685 279.460,255.685 277.581 C 255.685 276.790,254.939 276.479,252.350 276.193 C 250.970 276.040,249.601 275.867,249.309 275.808 C 246.761 275.296,245.960 275.107,244.102 274.580 C 237.818 272.797,231.087 270.010,226.460 267.275 C 224.201 265.939,224.056 265.989,224.968 267.789 C 226.871 271.544,231.973 277.258,235.388 279.459 C 237.716 280.959,238.204 281.904,237.154 282.882 C 234.403 285.446,220.865 277.403,213.177 268.638 C 211.285 266.481,210.834 266.034,210.690 266.178 C 210.622 266.247,210.660 266.424,210.775 266.573 C 216.004 273.370,219.357 276.864,222.701 279.000 C 223.367 279.424,224.537 280.175,225.302 280.667 C 226.068 281.159,227.550 281.963,228.597 282.453 C 229.643 282.944,230.666 283.434,230.869 283.543 C 231.072 283.652,231.332 283.741,231.447 283.741 C 232.664 283.741,234.431 285.173,234.431 286.159 C 234.431 289.808,221.737 283.832,214.871 276.951 C 210.922 272.993,200.860 258.987,200.849 257.434 C 200.846 257.002,199.741 256.122,198.512 255.573 C 190.751 252.106,182.462 246.016,177.660 240.254 C 176.353 238.685,170.636 235.493,166.465 234.002 C 164.780 233.399,164.747 233.446,165.528 235.324 C 170.229 246.624,166.244 261.620,157.407 265.884 C 150.519 269.208,143.108 268.701,137.184 264.501 C 128.365 258.247,125.904 243.062,132.132 233.324 C 132.335 233.007,132.447 232.695,132.383 232.631 C 132.205 232.453,128.915 233.454,126.432 234.441 C 122.456 236.021,113.817 240.874,112.912 242.036 C 112.223 242.920,112.815 252.849,113.865 258.023 C 114.043 258.900,114.254 260.000,114.335 260.468 C 114.646 262.284,117.222 270.275,118.171 272.370 C 121.139 278.922,124.245 283.697,128.378 288.063 C 130.944 290.774,130.689 290.757,133.409 288.383 C 137.755 284.591,138.096 284.388,138.652 285.272 C 138.944 285.735,138.582 286.130,135.494 288.730 C 132.186 291.515,132.247 291.433,132.983 292.125 C 133.706 292.804,136.011 294.348,137.231 294.970 L 138.117 295.422 140.397 293.566 C 144.947 289.863,148.089 287.372,149.566 286.296 C 150.133 285.883,150.303 285.845,150.576 286.071 C 151.395 286.751,151.033 287.143,145.483 291.582 C 139.527 296.346,139.555 296.311,141.247 296.844 C 143.503 297.555,144.395 299.109,143.270 300.369 L 142.650 301.063 140.453 301.063 C 139.245 301.063,137.635 300.991,136.876 300.904 L 135.494 300.745 134.243 301.914 C 132.941 303.129,132.669 303.253,132.242 302.827 C 131.818 302.402,131.950 301.969,132.756 301.144 C 133.656 300.222,133.612 300.083,132.260 299.574 C 125.644 297.082,120.325 293.377,114.616 287.280 C 112.595 285.123,112.540 285.432,114.329 288.880 C 117.038 294.102,119.673 297.749,123.209 301.171 C 129.142 306.915,133.675 309.197,141.731 310.497 C 145.322 311.077,144.754 314.316,140.886 315.321 C 138.237 316.009,129.656 315.847,126.279 315.045 C 124.510 314.625,129.803 319.735,135.388 323.838 C 144.036 330.192,160.627 339.289,173.114 344.523 C 178.306 346.700,188.095 349.828,193.305 350.975 C 207.087 354.009,221.118 350.983,242.295 340.409 C 253.951 334.589,263.888 328.728,270.699 323.655 C 277.130 318.866,277.254 318.742,280.583 313.767 C 283.008 310.142,283.199 309.746,282.412 309.969 C 274.877 312.104,264.400 310.925,264.400 307.942 C 264.400 306.902,264.868 306.584,266.844 306.282 C 272.427 305.429,273.982 304.890,277.046 302.743 C 280.002 300.673,283.585 296.527,285.799 292.617 C 287.257 290.042,287.267 290.051,284.801 291.744 C 282.563 293.279,279.002 295.143,277.046 295.802 C 275.841 296.208,275.243 296.366,272.860 296.905 C 272.312 297.029,271.116 297.132,270.203 297.134 L 268.544 297.138 266.263 299.275 C 264.539 300.890,263.864 301.395,263.500 301.344 C 262.486 301.200,262.818 300.491,264.820 298.529 C 266.521 296.860,266.710 296.602,266.448 296.301 C 265.323 295.017,265.740 294.338,268.507 292.955 C 275.016 289.701,282.656 280.443,286.020 271.732 C 290.024 261.363,289.792 251.473,285.292 240.701 C 283.929 237.437,284.169 237.700,280.871 235.870 C 277.926 234.236,273.866 232.587,273.650 232.936 C 273.589 233.034,273.875 233.820,274.285 234.684 C 277.527 241.511,277.271 251.534,273.682 258.236 C 268.314 268.262,255.899 271.038,246.121 264.398 C 238.405 259.159,235.338 245.360,239.672 235.382 C 240.102 234.392,240.408 233.536,240.352 233.480 C 240.170 233.298,237.414 234.397,234.483 235.820 C 231.597 237.221,231.174 237.308,230.501 236.634 C 229.692 235.825,230.575 234.368,233.198 232.182 C 234.716 230.918,237.253 229.118,237.516 229.118 C 237.589 229.118,238.049 228.849,238.538 228.520 C 240.377 227.283,244.060 225.675,248.247 224.282 L 250.053 223.680 250.159 221.128 C 250.304 217.657,251.196 216.294,252.819 217.068 C 253.808 217.540,254.120 218.098,254.693 220.421 L 255.187 222.423 256.339 222.395 C 256.973 222.380,258.904 222.260,260.630 222.129 C 262.356 221.997,264.425 221.950,265.228 222.025 C 267.489 222.235,267.989 222.062,269.694 220.484 C 271.483 218.828,271.509 218.658,270.249 216.892 L 269.297 215.558 267.969 215.404 C 256.489 214.072,238.671 217.790,230.804 223.160 C 229.466 224.073,228.707 224.227,228.251 223.678 C 227.798 223.132,228.390 222.365,230.074 221.318 C 235.373 218.021,241.287 215.973,250.478 214.253 C 253.837 213.624,261.687 213.069,264.999 213.226 C 267.627 213.351,267.682 213.317,266.778 212.145 C 265.580 210.593,260.154 202.757,256.111 196.739 L 251.966 190.572 248.884 189.646 C 231.620 184.460,224.577 181.339,222.060 177.760 C 221.414 176.841,220.682 175.907,220.432 175.684 C 219.797 175.117,219.837 174.173,220.514 173.729 C 221.603 173.016,232.881 175.325,240.026 177.726 C 244.728 179.305,244.931 179.336,244.231 178.353 C 243.985 178.007,243.783 177.666,243.783 177.595 C 243.783 177.524,243.269 176.630,242.642 175.609 C 236.994 166.419,227.162 147.904,223.400 139.373 C 223.155 138.818,222.774 137.957,222.553 137.460 C 221.566 135.235,221.235 134.469,220.072 131.722 C 218.675 128.419,218.581 128.323,218.408 130.021 M223.497 176.177 C 223.292 176.508,225.259 178.014,227.097 178.933 C 229.211 179.990,230.065 180.204,230.250 179.723 C 230.451 179.197,231.182 179.293,236.451 180.533 C 244.907 182.523,246.354 182.835,246.491 182.698 C 246.739 182.450,246.221 182.158,244.415 181.527 C 243.424 181.181,241.562 180.504,240.276 180.022 C 237.586 179.014,231.842 177.533,227.524 176.735 C 225.887 176.432,224.339 176.139,224.083 176.083 C 223.827 176.027,223.564 176.069,223.497 176.177 M165.569 182.645 C 165.569 183.699,165.657 184.073,165.971 184.358 C 166.558 184.890,166.644 185.686,166.178 186.279 C 164.917 187.881,166.975 199.812,170.144 209.273 C 174.306 221.699,179.630 229.316,187.812 234.550 C 189.792 235.816,190.072 236.519,183.914 224.761 C 180.437 218.123,177.169 211.361,175.021 206.361 C 172.120 199.609,166.966 185.376,166.511 182.862 C 166.158 180.906,165.569 180.770,165.569 182.645 M236.036 182.557 C 236.304 182.818,246.850 186.288,248.725 186.730 C 249.447 186.901,249.449 186.813,248.754 185.762 C 248.115 184.797,248.338 184.886,244.740 184.159 C 243.220 183.852,240.806 183.322,239.375 182.980 C 236.676 182.336,235.681 182.210,236.036 182.557 M149.662 186.944 C 147.006 188.122,145.665 188.641,143.358 189.385 C 140.928 190.169,140.892 190.615,143.291 190.229 C 153.588 188.570,153.653 188.548,153.326 186.853 C 153.070 185.528,152.839 185.534,149.662 186.944 M136.044 215.315 C 134.360 215.410,132.747 215.545,132.459 215.618 L 131.937 215.749 132.488 216.323 C 132.791 216.639,133.462 217.471,133.979 218.172 C 134.497 218.874,135.528 220.030,136.270 220.742 L 137.620 222.036 142.295 222.175 C 144.867 222.252,147.639 222.404,148.455 222.514 C 150.207 222.749,150.302 222.693,150.678 221.210 C 151.537 217.818,153.153 216.223,154.635 217.304 C 155.000 217.571,155.060 217.952,155.154 220.629 C 155.238 223.024,155.327 223.688,155.579 223.821 C 155.755 223.913,156.472 224.198,157.173 224.456 C 157.875 224.713,158.640 224.998,158.874 225.087 C 159.107 225.177,159.872 225.467,160.574 225.731 C 161.890 226.226,164.436 227.440,165.834 228.238 C 166.273 228.488,166.960 228.879,167.361 229.107 C 167.763 229.334,168.487 229.770,168.971 230.075 C 170.380 230.965,170.311 230.679,168.311 227.311 C 167.269 225.558,165.839 222.957,165.134 221.532 L 163.851 218.940 162.744 218.527 C 158.491 216.943,153.505 215.983,147.184 215.532 C 142.428 215.192,139.325 215.132,136.044 215.315 M129.330 215.965 C 125.457 216.528,115.321 219.010,114.662 219.556 C 114.521 219.673,114.345 220.319,114.271 220.990 C 114.046 223.042,113.740 225.557,113.582 226.645 L 113.432 227.678 114.148 227.521 C 114.542 227.434,115.010 227.287,115.190 227.194 C 116.282 226.626,122.854 224.495,124.973 224.022 C 126.401 223.703,128.912 223.202,129.756 223.067 C 131.419 222.802,131.348 222.960,130.790 220.771 C 130.209 218.487,130.142 216.963,130.606 216.578 C 130.934 216.306,131.049 215.708,130.765 215.754 C 130.677 215.768,130.032 215.863,129.330 215.965 M39.038 218.364 C 38.918 218.677,39.056 218.916,39.355 218.916 C 39.453 218.916,39.532 218.725,39.532 218.491 C 39.532 218.004,39.209 217.920,39.038 218.364 M373.152 220.767 C 373.088 220.871,373.113 221.081,373.207 221.234 C 373.338 221.445,373.417 221.451,373.536 221.258 C 373.622 221.119,373.597 220.909,373.480 220.792 C 373.362 220.673,373.217 220.662,373.152 220.767 M273.679 222.460 C 273.388 222.751,273.555 223.167,273.964 223.167 C 274.198 223.167,274.389 223.083,274.389 222.980 C 274.389 222.702,273.840 222.299,273.679 222.460 M72.582 234.875 C 60.152 241.473,59.703 263.986,71.687 279.778 C 73.247 281.833,76.886 285.654,77.284 285.654 C 77.626 285.654,77.629 285.608,77.372 284.485 C 77.104 283.310,75.734 273.690,75.465 271.095 C 75.344 269.926,75.100 267.535,74.922 265.781 C 74.745 264.028,74.453 259.155,74.275 254.952 C 74.096 250.750,73.911 247.273,73.865 247.226 C 73.225 246.587,71.215 251.632,70.674 255.229 C 69.802 261.036,70.526 266.093,73.135 272.423 C 73.397 273.059,73.381 273.153,72.943 273.591 C 70.479 276.055,67.372 263.172,68.548 255.369 C 69.322 250.235,70.649 246.844,72.559 245.123 L 73.692 244.102 73.830 242.058 C 74.010 239.399,73.814 239.166,72.228 240.151 C 70.622 241.150,69.395 240.703,70.138 239.391 C 70.500 238.752,72.762 237.413,73.486 237.410 C 73.913 237.407,73.968 237.293,73.999 236.344 C 74.019 235.760,74.043 235.116,74.052 234.913 C 74.078 234.375,73.550 234.361,72.582 234.875 M320.367 237.537 C 320.441 238.108,320.644 239.532,320.818 240.701 C 320.992 241.870,321.137 243.281,321.141 243.836 C 321.150 245.158,321.377 245.123,322.832 243.571 C 324.134 242.180,324.817 241.960,325.497 242.712 C 326.109 243.388,325.754 244.051,323.588 246.270 L 321.573 248.335 321.573 251.150 L 321.573 253.965 322.582 254.642 C 326.874 257.521,328.482 260.906,328.478 267.056 C 328.476 271.156,328.141 272.864,327.263 273.258 C 326.101 273.779,325.758 273.044,326.147 270.864 C 327.089 265.577,325.979 260.796,323.254 258.397 C 321.622 256.960,321.312 256.952,321.216 258.342 C 321.084 260.256,320.490 263.571,319.729 266.631 C 319.155 268.939,317.750 273.290,317.128 274.686 C 316.914 275.166,316.391 276.378,315.965 277.380 C 315.539 278.383,314.714 280.100,314.131 281.196 C 312.854 283.597,312.863 283.443,313.957 284.386 C 315.964 286.114,314.355 288.236,312.201 286.702 C 311.339 286.088,311.347 286.082,309.273 289.027 C 306.258 293.307,300.925 299.128,297.467 301.913 C 295.642 303.382,295.572 303.565,296.643 304.073 C 298.821 305.107,305.865 303.976,309.637 301.988 C 317.701 297.737,328.105 288.612,333.554 281.010 L 334.978 279.023 334.757 276.076 C 333.924 265.005,330.769 252.489,326.539 243.467 C 323.701 237.416,323.415 237.060,321.061 236.644 L 320.231 236.497 320.367 237.537 M136.557 251.044 C 134.389 252.241,134.441 254.224,136.732 257.705 C 141.544 265.015,152.202 266.085,158.571 259.897 C 161.374 257.172,162.190 254.815,160.808 253.433 C 159.345 251.970,157.924 252.401,156.331 254.790 C 152.382 260.711,143.278 259.685,140.065 252.956 C 139.128 250.994,137.880 250.314,136.557 251.044 M268.119 250.958 C 267.263 251.162,266.549 251.892,265.855 253.274 C 262.415 260.119,252.424 260.481,249.193 253.878 C 248.092 251.627,246.102 251.486,244.687 253.560 C 242.998 256.033,247.531 261.440,252.691 263.108 C 259.876 265.431,266.539 262.699,270.018 256.004 C 271.685 252.796,270.757 250.331,268.119 250.958 M159.710 267.572 C 160.565 268.517,159.675 269.305,157.173 269.818 C 147.223 271.858,133.911 272.942,132.846 271.798 C 131.811 270.688,132.817 269.926,135.316 269.926 C 139.953 269.926,152.287 268.615,156.111 267.716 C 158.794 267.085,159.252 267.066,159.710 267.572 M160.733 271.668 C 161.623 272.696,160.840 274.601,159.529 274.601 C 158.773 274.601,158.288 274.197,157.937 273.272 C 157.327 271.669,159.604 270.362,160.733 271.668 M155.969 272.390 C 157.230 273.274,156.071 274.205,152.922 274.840 C 149.940 275.442,150.024 275.366,150.084 277.390 C 150.137 279.178,149.804 279.915,148.944 279.915 C 147.862 279.915,147.294 278.899,147.291 276.963 L 147.290 276.031 146.068 276.200 C 145.396 276.293,144.233 276.426,143.485 276.495 L 142.123 276.621 141.438 277.896 C 140.179 280.237,139.145 280.896,138.262 279.920 C 137.785 279.393,137.879 278.752,138.807 276.202 C 139.845 273.347,141.248 272.439,142.385 273.885 C 142.915 274.558,143.994 274.507,147.715 273.630 C 149.841 273.130,154.803 272.103,155.266 272.068 C 155.386 272.058,155.703 272.204,155.969 272.390 M275.350 273.764 C 277.567 275.371,278.082 276.770,276.714 277.477 C 274.954 278.388,271.153 274.128,272.736 273.019 C 273.454 272.517,273.743 272.599,275.350 273.764 M133.039 273.582 C 133.518 274.439,130.401 277.790,129.125 277.790 C 127.643 277.790,127.255 275.868,128.533 274.857 C 131.010 272.897,132.431 272.495,133.039 273.582 M261.728 281.312 C 262.214 281.798,262.172 281.889,260.946 283.001 C 258.735 285.006,255.138 288.344,253.357 290.045 C 250.523 292.751,250.141 292.989,249.564 292.412 C 248.918 291.766,249.659 290.971,257.067 284.358 C 261.081 280.775,261.148 280.732,261.728 281.312 M271.411 283.632 C 271.841 284.150,271.475 284.858,270.311 285.760 C 269.707 286.227,267.853 287.853,266.190 289.373 C 258.181 296.693,255.992 298.618,255.681 298.618 C 255.461 298.618,254.835 298.007,254.835 297.793 C 254.835 297.465,262.662 290.168,266.950 286.498 C 267.944 285.647,269.161 284.584,269.655 284.134 C 270.627 283.249,271.004 283.141,271.411 283.632 M203.632 284.013 C 204.623 284.774,204.716 286.071,203.842 286.945 C 203.088 287.700,202.550 287.729,201.770 287.058 C 200.206 285.712,202.007 282.766,203.632 284.013 M91.479 289.851 C 91.554 290.640,91.712 291.860,91.829 292.561 C 91.947 293.262,92.226 294.984,92.450 296.387 C 92.933 299.424,92.745 299.214,96.775 301.230 C 100.125 302.906,104.145 304.306,104.145 303.797 C 104.145 303.723,102.877 302.359,101.328 300.765 C 99.779 299.171,97.938 297.121,97.237 296.210 C 96.536 295.299,95.647 294.153,95.261 293.663 C 94.876 293.174,93.894 291.793,93.078 290.595 C 91.323 288.016,91.304 288.007,91.479 289.851 M155.536 293.104 C 155.590 293.570,155.109 294.069,152.135 296.634 C 150.230 298.277,147.921 300.304,147.002 301.139 C 145.289 302.697,145.010 302.842,144.570 302.402 C 144.058 301.890,144.350 301.395,146.068 299.866 C 147.032 299.007,148.730 297.487,149.841 296.488 C 154.695 292.119,155.374 291.715,155.536 293.104 M58.023 295.496 C 58.023 296.077,58.612 296.647,58.776 296.225 C 58.921 295.851,58.564 295.218,58.210 295.218 C 58.107 295.218,58.023 295.343,58.023 295.496 M173.326 299.940 C 174.267 300.508,179.861 303.271,180.978 303.719 C 181.211 303.813,181.856 304.090,182.410 304.336 C 182.964 304.581,183.483 304.782,183.564 304.782 C 183.709 304.782,185.543 305.434,189.362 306.843 C 198.303 310.142,204.306 310.615,211.371 308.579 C 219.835 306.139,227.164 303.193,232.616 300.041 C 234.704 298.833,235.919 298.984,235.919 300.449 C 235.919 302.256,227.850 306.169,216.259 309.982 C 205.543 313.508,200.391 313.504,189.798 309.962 C 181.487 307.183,175.260 304.613,171.428 302.378 C 169.709 301.376,169.361 299.975,170.670 299.322 C 171.342 298.987,172.003 299.141,173.326 299.940 M75.824 351.687 C 75.393 351.800,75.353 351.995,75.693 352.335 C 75.873 352.515,76.062 352.492,76.437 352.246 C 77.296 351.683,76.971 351.387,75.824 351.687 M331.700 375.657 C 331.635 375.829,331.653 376.014,331.741 376.068 C 332.006 376.232,332.478 375.836,332.321 375.582 C 332.118 375.253,331.843 375.287,331.700 375.657 M79.936 389.454 C 79.618 389.838,80.056 390.016,81.261 389.995 L 82.147 389.979 81.296 389.586 C 80.241 389.097,80.233 389.096,79.936 389.454 " stroke="none" fill="#ffffff" fill-rule="evenodd"></path><path id="path1" d="M151.116 5.776 C 148.708 6.059,146.677 6.403,145.377 6.746 C 144.734 6.916,143.874 7.135,143.464 7.233 C 141.725 7.649,140.728 7.965,138.257 8.883 C 134.662 10.220,134.279 10.395,129.224 13.008 C 127.880 13.703,127.936 13.669,125.011 15.569 C 123.795 16.358,122.755 17.003,122.700 17.003 C 122.541 17.003,117.213 21.046,115.091 22.777 C 110.490 26.529,101.849 35.806,97.008 42.189 C 93.580 46.708,88.012 55.040,86.609 57.749 C 86.354 58.241,86.048 58.767,85.928 58.918 C 85.251 59.773,80.525 68.871,79.272 71.732 C 79.016 72.317,78.521 73.417,78.172 74.176 C 76.091 78.705,73.073 87.816,71.431 94.527 C 71.324 94.965,71.137 95.707,71.015 96.174 C 70.894 96.642,70.701 97.503,70.586 98.087 C 70.471 98.672,70.317 99.437,70.243 99.787 C 70.088 100.523,69.807 102.084,69.554 103.615 C 69.457 104.200,69.131 105.156,68.830 105.740 C 67.217 108.865,63.508 116.455,62.807 118.066 C 62.603 118.533,62.172 119.490,61.849 120.191 C 61.526 120.893,61.107 121.825,60.918 122.264 C 60.729 122.702,60.438 123.371,60.273 123.751 C 58.403 128.041,54.661 138.497,53.140 143.677 C 52.599 145.521,52.440 146.047,51.859 147.910 C 51.626 148.660,51.435 149.443,51.435 149.651 C 51.435 149.858,51.350 150.081,51.246 150.145 C 51.142 150.209,51.005 150.573,50.942 150.954 C 50.879 151.335,50.725 152.054,50.600 152.550 C 50.474 153.047,50.285 153.812,50.178 154.251 C 49.851 155.598,49.304 157.771,49.089 158.579 C 48.976 159.002,48.884 159.594,48.884 159.895 C 48.884 160.196,48.799 160.495,48.694 160.560 C 48.590 160.625,48.452 161.037,48.389 161.476 C 48.326 161.915,48.166 162.752,48.034 163.337 C 47.902 163.921,47.743 164.782,47.680 165.250 C 47.617 165.717,47.480 166.191,47.375 166.302 C 47.270 166.413,47.184 166.774,47.184 167.105 C 47.184 167.504,46.610 168.563,45.484 170.244 C 44.548 171.640,43.783 172.838,43.783 172.907 C 43.783 172.975,43.401 173.594,42.933 174.283 C 42.465 174.971,42.083 175.597,42.083 175.673 C 42.083 175.749,41.906 176.065,41.690 176.375 C 41.474 176.686,41.010 177.465,40.658 178.108 C 39.704 179.855,38.927 181.245,38.046 182.784 C 37.611 183.544,36.176 186.318,34.858 188.948 C 33.539 191.578,32.363 193.921,32.244 194.155 C 31.865 194.898,31.731 195.177,30.814 197.131 C 30.320 198.183,29.747 199.426,29.540 199.894 C 29.333 200.361,28.924 201.270,28.632 201.913 C 28.340 202.556,27.937 203.464,27.737 203.932 C 27.537 204.400,27.180 205.213,26.944 205.739 C 26.707 206.265,26.440 206.886,26.350 207.120 C 26.260 207.354,26.033 207.904,25.845 208.342 C 25.658 208.781,25.352 209.498,25.164 209.936 C 24.977 210.375,24.751 210.925,24.661 211.158 C 24.572 211.392,24.378 211.870,24.230 212.221 C 24.081 212.572,23.890 213.050,23.804 213.284 C 23.719 213.518,23.549 213.948,23.428 214.240 C 23.058 215.129,22.506 216.631,22.180 217.641 C 22.009 218.167,21.786 218.789,21.683 219.022 C 21.374 219.728,20.418 222.494,19.628 224.973 C 19.218 226.259,18.704 227.837,18.486 228.480 C 17.834 230.399,16.423 235.437,15.837 237.938 C 15.535 239.224,15.152 240.850,14.985 241.552 C 13.620 247.285,12.902 252.206,12.116 261.224 C 11.999 262.575,11.902 265.572,11.902 267.883 C 11.902 278.446,13.570 285.922,17.832 294.472 C 19.336 297.488,19.337 297.485,16.847 298.090 C 14.271 298.715,11.303 298.647,8.249 297.894 L 5.765 297.281 4.656 297.684 C 2.108 298.611,1.784 301.684,4.070 303.233 C 8.210 306.038,14.700 306.391,21.549 304.184 L 23.225 303.644 24.099 304.612 C 24.580 305.144,25.687 306.371,26.560 307.338 C 28.404 309.382,32.551 312.854,34.223 313.755 C 34.513 313.911,35.133 314.284,35.600 314.584 C 36.618 315.237,39.178 316.472,39.513 316.472 C 39.644 316.472,39.917 316.556,40.120 316.658 C 43.707 318.471,47.386 316.321,45.821 313.326 C 45.318 312.363,44.542 311.765,42.169 310.512 C 39.099 308.891,35.686 306.217,32.465 302.908 C 29.604 299.968,29.596 300.214,32.625 297.969 C 33.326 297.450,34.880 296.077,36.079 294.919 C 38.736 292.352,38.833 292.371,39.751 295.643 C 40.277 297.517,41.711 301.714,42.106 302.537 C 42.327 302.998,42.508 303.458,42.508 303.560 C 42.508 304.050,45.698 310.446,46.703 311.973 C 46.909 312.286,47.173 312.696,47.290 312.885 C 54.005 323.748,64.451 330.344,71.307 328.051 C 76.771 326.224,77.846 322.880,73.519 321.170 C 71.378 320.324,64.612 313.887,64.612 312.696 C 64.612 312.580,64.471 312.368,64.298 312.225 C 64.125 312.081,63.849 311.711,63.686 311.402 C 63.522 311.092,63.010 310.122,62.548 309.245 C 60.740 305.814,58.034 297.926,58.307 296.882 C 58.369 296.645,58.315 296.220,58.187 295.939 C 57.616 294.686,58.540 295.433,62.862 299.722 C 65.403 302.242,68.010 304.770,68.656 305.340 C 70.440 306.913,74.185 309.976,74.471 310.096 C 74.611 310.154,75.065 310.465,75.480 310.786 C 75.896 311.108,76.331 311.371,76.448 311.371 C 76.565 311.371,76.834 311.562,77.046 311.796 C 77.257 312.030,77.515 312.221,77.618 312.221 C 77.978 312.221,81.603 314.776,81.821 315.183 C 82.171 315.838,82.095 322.477,81.716 324.293 C 79.639 334.251,71.946 342.159,61.637 344.936 C 61.111 345.078,60.386 345.283,60.027 345.392 C 59.668 345.501,59.037 345.590,58.624 345.590 C 53.286 345.590,53.231 350.935,58.555 352.356 C 61.703 353.197,69.702 353.099,73.326 352.176 C 73.852 352.041,74.570 351.898,74.920 351.858 C 75.271 351.817,75.869 351.717,76.249 351.636 C 77.127 351.448,77.117 351.590,76.183 352.524 C 74.483 354.224,74.556 356.908,76.326 357.791 C 77.526 358.390,80.308 358.623,82.840 358.338 C 85.515 358.037,86.948 357.740,89.957 356.866 C 90.337 356.756,90.984 356.580,91.395 356.475 C 91.806 356.370,92.500 356.125,92.936 355.932 C 93.373 355.738,94.041 355.446,94.421 355.283 C 97.671 353.888,101.864 351.770,103.058 350.920 C 103.400 350.677,103.746 350.478,103.828 350.478 C 103.910 350.478,104.402 350.191,104.921 349.841 C 105.441 349.490,105.942 349.203,106.035 349.203 C 106.128 349.203,106.377 349.012,106.589 348.778 C 106.800 348.544,107.087 348.353,107.226 348.353 C 107.365 348.353,107.652 348.162,107.864 347.928 C 108.076 347.694,108.332 347.503,108.434 347.503 C 108.536 347.503,109.256 347.009,110.032 346.407 C 111.246 345.465,112.666 344.830,112.325 345.381 C 112.264 345.480,112.311 345.621,112.430 345.694 C 112.713 345.869,112.715 352.905,112.433 355.459 C 111.654 362.492,111.458 363.547,110.260 367.163 C 108.680 371.930,106.197 373.892,100.192 375.115 C 95.382 376.096,84.730 376.274,79.702 375.459 C 70.044 373.892,69.375 382.418,78.722 387.959 C 79.086 388.174,79.575 388.527,79.809 388.742 C 80.043 388.957,80.664 389.328,81.190 389.567 L 82.147 390.000 80.128 389.862 C 74.828 389.498,72.901 389.877,72.901 391.284 C 72.901 391.505,72.806 391.745,72.689 391.817 C 72.343 392.031,72.445 393.580,72.908 395.134 C 74.072 399.042,78.293 402.915,83.422 404.783 C 88.224 406.531,96.674 406.856,102.444 405.514 C 102.970 405.392,103.831 405.206,104.357 405.101 C 104.883 404.996,105.983 404.706,106.801 404.457 C 107.620 404.207,108.576 403.930,108.927 403.840 C 109.991 403.568,112.653 402.568,114.453 401.765 C 119.173 399.659,119.673 399.384,124.548 396.217 C 130.972 392.045,139.668 383.319,143.996 376.702 C 144.346 376.166,144.777 375.512,144.952 375.248 C 146.954 372.239,147.137 371.935,148.926 368.658 C 150.139 366.436,152.008 362.399,152.951 359.967 C 153.365 358.898,153.887 357.556,154.110 356.985 C 154.334 356.415,154.516 355.775,154.516 355.563 C 154.516 355.352,154.601 355.127,154.704 355.064 C 154.807 355.000,154.943 354.731,155.008 354.466 C 155.117 354.015,155.245 353.555,155.808 351.594 C 155.933 351.156,156.120 350.414,156.221 349.947 C 156.323 349.479,156.509 348.666,156.634 348.140 C 156.759 347.614,156.952 346.706,157.064 346.121 C 157.748 342.521,157.531 342.595,161.576 344.583 C 165.366 346.445,167.617 347.503,167.789 347.503 C 167.856 347.503,168.364 347.703,168.918 347.949 C 169.472 348.194,170.117 348.472,170.351 348.565 C 170.584 348.658,171.111 348.880,171.520 349.058 C 171.929 349.235,172.694 349.543,173.220 349.740 C 173.746 349.938,174.559 350.268,175.027 350.473 C 175.494 350.678,176.259 350.968,176.727 351.117 C 177.194 351.266,177.768 351.463,178.002 351.556 C 178.236 351.649,179.049 351.928,179.809 352.175 C 180.569 352.422,181.356 352.715,181.559 352.826 C 181.762 352.938,182.105 353.029,182.321 353.029 C 182.537 353.029,182.780 353.095,182.862 353.177 C 183.035 353.350,184.842 353.868,188.204 354.710 C 188.672 354.827,189.341 354.982,189.692 355.054 C 190.043 355.127,190.521 355.268,190.755 355.368 C 190.988 355.468,191.514 355.608,191.923 355.679 C 192.333 355.750,193.146 355.901,193.730 356.015 C 196.173 356.491,198.009 356.654,202.338 356.780 C 207.670 356.935,210.462 356.708,214.612 355.781 C 215.109 355.670,215.970 355.477,216.525 355.353 C 217.649 355.102,218.960 354.764,219.766 354.518 C 220.058 354.428,221.015 354.143,221.892 353.883 C 222.768 353.623,223.652 353.324,223.855 353.219 C 224.058 353.115,224.411 353.029,224.639 353.029 C 224.868 353.029,225.114 352.933,225.186 352.816 C 225.258 352.699,225.532 352.604,225.794 352.604 C 226.056 352.604,226.361 352.527,226.472 352.434 C 226.583 352.341,227.056 352.144,227.524 351.995 C 227.991 351.847,228.589 351.636,228.852 351.527 C 229.115 351.418,229.546 351.246,229.809 351.146 C 230.072 351.046,230.702 350.759,231.210 350.508 C 231.718 350.258,232.269 350.053,232.435 350.053 C 232.601 350.053,232.903 349.968,233.106 349.864 C 233.507 349.658,234.946 349.011,236.132 348.504 C 236.541 348.328,237.354 347.978,237.938 347.724 C 239.418 347.082,247.195 343.155,248.956 342.160 C 250.900 341.062,251.278 341.192,251.512 343.039 C 251.804 345.334,251.915 345.921,252.094 346.111 C 252.199 346.222,252.285 346.534,252.285 346.804 C 252.285 347.075,252.371 347.462,252.476 347.665 C 252.580 347.868,252.885 348.751,253.151 349.628 C 253.418 350.505,253.715 351.313,253.811 351.424 C 253.907 351.535,253.985 351.789,253.985 351.988 C 253.985 352.188,254.167 352.719,254.390 353.168 C 254.613 353.617,254.960 354.368,255.161 354.835 C 257.670 360.672,262.109 366.675,266.986 370.826 C 269.576 373.031,269.769 373.295,270.512 375.664 C 271.855 379.951,272.136 381.491,272.122 384.485 C 272.078 394.036,267.106 403.238,260.061 406.806 C 258.234 407.732,258.231 410.880,260.057 411.942 C 261.907 413.018,267.227 413.547,270.175 412.947 C 272.079 412.560,274.696 411.847,274.910 411.657 C 275.021 411.558,275.260 411.476,275.441 411.474 C 277.628 411.457,288.199 402.953,288.204 401.207 C 288.204 401.111,288.473 400.633,288.802 400.145 C 289.130 399.656,289.756 398.523,290.193 397.627 C 291.266 395.423,291.419 395.318,292.408 396.105 C 306.174 407.063,328.455 406.634,342.468 395.140 C 344.393 393.561,348.353 389.326,348.353 388.846 C 348.353 388.772,348.628 388.357,348.965 387.926 C 349.808 386.845,351.877 383.043,352.631 381.190 C 353.552 378.924,354.162 377.306,354.313 376.727 C 354.405 376.376,354.623 375.563,354.798 374.920 C 356.034 370.375,355.613 367.106,353.660 366.097 C 351.839 365.155,349.403 366.058,344.250 369.585 C 343.806 369.889,343.280 370.234,343.082 370.351 C 342.884 370.468,342.483 370.719,342.190 370.910 C 341.897 371.101,341.323 371.448,340.914 371.681 C 340.505 371.914,339.501 372.515,338.682 373.017 C 336.887 374.118,332.845 376.061,332.684 375.901 C 332.621 375.837,332.403 375.874,332.200 375.983 C 331.462 376.378,331.609 375.881,333.043 373.142 C 334.673 370.026,335.175 368.565,335.175 366.938 C 335.175 362.131,331.054 360.977,326.410 364.483 C 325.774 364.963,325.181 365.356,325.093 365.356 C 325.005 365.356,324.679 365.536,324.369 365.756 C 318.106 370.196,306.816 373.162,303.885 371.138 C 301.398 369.421,298.182 363.030,296.911 357.279 C 296.769 356.637,296.569 355.833,296.467 355.494 C 296.022 354.023,296.674 352.179,297.639 352.179 C 297.966 352.179,303.019 348.671,305.101 346.998 C 309.374 343.564,316.204 336.225,320.147 330.830 C 321.351 329.183,321.391 329.176,322.787 330.340 C 339.193 344.026,362.800 346.931,368.337 335.945 C 369.592 333.454,367.590 330.573,364.938 331.054 C 363.025 331.402,358.104 331.158,357.609 330.690 C 357.498 330.585,357.234 330.499,357.022 330.499 C 356.810 330.499,356.470 330.414,356.267 330.310 C 356.064 330.206,355.420 329.895,354.836 329.619 C 353.078 328.789,348.778 324.316,348.778 323.317 C 348.778 323.212,348.622 322.813,348.431 322.431 C 348.068 321.703,347.831 320.901,347.454 319.129 C 347.149 317.694,347.167 312.607,347.482 311.158 C 347.622 310.515,347.790 309.630,347.855 309.191 C 347.920 308.752,348.058 308.340,348.163 308.275 C 348.267 308.211,348.353 307.928,348.353 307.647 C 348.353 307.318,348.795 306.659,349.593 305.799 C 352.389 302.786,356.481 297.274,357.923 294.580 C 358.205 294.054,358.556 293.475,358.703 293.293 C 359.037 292.881,362.558 285.892,363.088 284.590 C 363.302 284.065,363.673 283.204,363.912 282.678 C 364.319 281.784,364.424 281.531,364.902 280.287 C 365.209 279.490,365.607 278.555,365.806 278.164 C 365.909 277.961,365.994 277.649,365.994 277.471 C 365.994 277.292,366.080 276.980,366.185 276.777 C 366.291 276.574,366.499 275.978,366.647 275.452 C 366.796 274.926,366.997 274.404,367.093 274.293 C 367.190 274.182,367.269 273.877,367.269 273.615 C 367.269 273.353,367.365 273.080,367.481 273.007 C 367.598 272.935,367.694 272.648,367.694 272.370 C 367.694 272.091,367.790 271.804,367.906 271.732 C 368.023 271.660,368.119 271.325,368.119 270.988 C 368.119 270.651,368.204 270.323,368.308 270.259 C 368.412 270.195,368.547 269.830,368.607 269.449 C 368.668 269.068,368.828 268.374,368.964 267.906 C 369.099 267.439,369.299 266.698,369.408 266.259 C 369.965 264.025,370.071 263.582,370.267 262.699 C 370.384 262.173,370.566 261.265,370.672 260.680 C 370.779 260.096,370.969 259.091,371.096 258.448 C 372.613 250.757,373.518 235.879,373.034 226.588 C 372.861 223.265,372.861 221.962,373.033 221.755 C 373.162 221.599,373.213 221.330,373.147 221.157 C 372.911 220.543,373.373 220.643,373.875 221.315 C 374.552 222.222,374.926 222.890,376.104 225.292 C 376.648 226.403,377.178 227.477,377.282 227.680 C 377.386 227.883,377.471 228.147,377.471 228.267 C 377.471 228.387,377.651 228.890,377.871 229.386 C 378.091 229.881,378.387 230.622,378.530 231.031 C 378.849 231.948,379.161 232.721,379.408 233.206 C 379.512 233.409,379.596 233.762,379.596 233.991 C 379.596 234.219,379.692 234.465,379.809 234.538 C 379.926 234.610,380.021 234.945,380.021 235.282 C 380.021 235.619,380.106 235.947,380.210 236.011 C 380.314 236.075,380.451 236.440,380.514 236.821 C 380.701 237.951,380.892 238.761,381.079 239.214 C 381.175 239.447,381.375 240.356,381.522 241.233 C 381.669 242.109,381.858 242.922,381.941 243.039 C 382.023 243.156,382.158 243.730,382.240 244.315 C 382.322 244.899,382.475 245.951,382.580 246.652 C 383.432 252.370,383.430 257.489,382.576 264.400 C 382.467 265.276,382.319 266.472,382.246 267.056 C 382.174 267.641,382.036 268.358,381.941 268.650 C 381.845 268.943,381.654 269.756,381.516 270.457 C 381.378 271.158,381.168 272.115,381.051 272.582 C 380.484 274.833,380.048 276.391,379.803 277.046 C 379.716 277.279,379.521 277.901,379.371 278.427 C 379.220 278.953,379.018 279.474,378.922 279.586 C 378.825 279.697,378.746 279.961,378.746 280.173 C 378.746 280.385,378.662 280.724,378.558 280.927 C 378.382 281.273,378.157 281.807,377.706 282.944 C 376.034 287.164,371.334 295.267,368.430 298.937 C 365.913 302.119,367.203 305.291,370.638 304.366 C 371.911 304.023,374.978 301.131,376.844 298.514 C 377.981 296.919,380.234 293.548,380.234 293.441 C 380.234 293.383,380.596 292.778,381.039 292.098 C 381.815 290.907,382.068 290.411,384.057 286.185 C 384.552 285.133,385.138 283.904,385.358 283.455 C 385.579 283.006,385.760 282.461,385.760 282.245 C 385.760 282.030,385.855 281.794,385.972 281.722 C 386.089 281.649,386.185 281.403,386.185 281.175 C 386.185 280.946,386.281 280.569,386.397 280.337 C 386.514 280.105,386.706 279.725,386.823 279.493 C 386.939 279.261,387.035 278.884,387.035 278.655 C 387.035 278.427,387.131 278.181,387.248 278.108 C 387.365 278.036,387.460 277.749,387.460 277.471 C 387.460 277.192,387.556 276.905,387.673 276.833 C 387.790 276.761,387.885 276.426,387.885 276.089 C 387.885 275.752,387.970 275.424,388.074 275.360 C 388.178 275.296,388.311 274.931,388.368 274.550 C 388.426 274.169,388.633 273.236,388.827 272.476 C 389.247 270.836,389.467 269.839,389.791 268.119 C 389.923 267.418,390.118 266.413,390.224 265.887 C 390.329 265.361,390.522 264.022,390.651 262.912 C 390.781 261.801,390.977 260.253,391.086 259.470 C 391.356 257.546,391.343 247.801,391.068 245.165 C 390.675 241.415,390.425 239.249,390.215 237.779 C 389.569 233.254,389.564 233.223,388.938 230.287 C 388.838 229.819,388.647 228.911,388.514 228.268 C 388.381 227.625,388.177 226.716,388.061 226.249 C 387.653 224.602,387.485 223.900,387.246 222.848 C 387.114 222.264,386.907 221.355,386.788 220.829 C 386.668 220.303,386.495 219.681,386.402 219.447 C 386.309 219.214,386.116 218.592,385.972 218.066 C 385.684 217.011,385.380 216.060,385.125 215.409 C 385.033 215.175,384.842 214.554,384.701 214.028 C 384.559 213.502,384.357 212.905,384.251 212.702 C 384.146 212.499,384.060 212.146,384.060 211.918 C 384.060 211.689,383.964 211.443,383.847 211.371 C 383.730 211.299,383.634 211.012,383.634 210.733 C 383.634 210.455,383.539 210.168,383.422 210.096 C 383.305 210.023,383.209 209.736,383.209 209.458 C 383.209 209.180,383.114 208.893,382.997 208.820 C 382.880 208.748,382.784 208.502,382.784 208.274 C 382.784 207.872,382.708 207.665,382.180 206.645 C 382.045 206.383,381.934 206.071,381.934 205.952 C 381.934 205.832,381.754 205.329,381.534 204.833 C 381.314 204.337,381.018 203.597,380.875 203.188 C 380.733 202.779,380.517 202.205,380.396 201.913 C 380.276 201.621,380.094 201.166,379.993 200.903 C 379.377 199.305,378.376 196.979,377.363 194.793 C 377.092 194.208,376.601 193.108,376.272 192.349 C 375.252 189.992,367.670 175.161,366.058 172.370 C 365.822 171.961,365.378 171.196,365.072 170.670 C 364.766 170.143,364.266 169.187,363.961 168.544 C 363.656 167.901,363.319 167.209,363.212 167.006 C 363.105 166.803,363.018 166.539,363.018 166.419 C 363.018 166.300,362.817 165.748,362.572 165.194 C 362.326 164.640,362.039 163.972,361.934 163.709 C 361.829 163.446,361.647 162.991,361.530 162.699 C 361.413 162.407,361.209 161.905,361.077 161.583 C 360.583 160.387,360.491 160.136,360.351 159.617 C 360.272 159.325,360.085 158.799,359.935 158.448 C 359.586 157.630,359.565 157.573,358.189 153.666 C 356.689 149.404,356.224 148.009,355.147 144.527 C 354.659 142.949,354.177 141.467,354.076 141.233 C 353.976 140.999,353.690 140.138,353.441 139.320 C 353.192 138.502,352.819 137.306,352.612 136.663 C 352.405 136.020,352.116 135.064,351.970 134.538 C 351.824 134.012,351.631 133.390,351.541 133.156 C 351.451 132.922,351.259 132.301,351.116 131.775 C 350.972 131.249,350.781 130.627,350.691 130.393 C 350.601 130.159,350.409 129.538,350.266 129.012 C 350.122 128.486,349.931 127.864,349.841 127.630 C 349.750 127.396,349.561 126.775,349.419 126.249 C 349.277 125.723,349.075 125.126,348.970 124.923 C 348.864 124.720,348.778 124.319,348.778 124.032 C 348.778 123.746,348.682 123.452,348.565 123.379 C 348.448 123.307,348.353 123.020,348.353 122.742 C 348.353 122.463,348.257 122.176,348.140 122.104 C 348.023 122.032,347.928 121.758,347.928 121.496 C 347.928 121.235,347.849 120.929,347.752 120.818 C 347.656 120.707,347.453 120.186,347.303 119.660 C 347.152 119.134,346.951 118.512,346.855 118.278 C 346.759 118.045,346.559 117.471,346.411 117.003 C 346.262 116.536,346.065 116.062,345.971 115.951 C 345.878 115.840,345.802 115.576,345.802 115.364 C 345.802 115.152,345.707 114.788,345.590 114.556 C 345.473 114.324,345.282 113.944,345.165 113.712 C 345.048 113.479,344.952 113.103,344.952 112.874 C 344.952 112.646,344.857 112.400,344.740 112.327 C 344.623 112.255,344.527 112.057,344.527 111.887 C 344.527 111.718,344.347 111.173,344.127 110.678 C 343.907 110.182,343.611 109.442,343.468 109.033 C 343.326 108.624,343.123 108.074,343.018 107.811 C 342.526 106.581,342.338 106.136,342.164 105.795 C 342.061 105.592,341.974 105.305,341.970 105.157 C 341.966 105.009,341.679 104.317,341.332 103.619 C 340.985 102.920,340.701 102.277,340.701 102.190 C 340.701 102.103,340.472 101.527,340.192 100.910 C 339.911 100.292,339.433 99.193,339.129 98.467 C 337.948 95.643,334.708 89.325,332.914 86.348 C 332.404 85.502,331.987 84.760,331.987 84.698 C 331.987 84.564,330.712 82.575,328.034 78.533 C 315.142 59.074,298.155 43.331,278.215 32.362 C 275.344 30.782,274.515 30.368,271.732 29.120 C 271.148 28.858,270.191 28.424,269.607 28.157 C 266.357 26.669,264.440 25.903,261.211 24.800 C 254.030 22.348,243.426 20.425,236.992 20.409 L 234.770 20.404 232.528 19.044 C 227.751 16.145,222.362 13.813,218.491 12.969 C 217.848 12.828,216.987 12.632,216.578 12.531 C 208.296 10.502,194.788 13.214,185.500 18.772 C 185.129 18.993,184.978 18.899,184.198 17.963 C 181.951 15.266,180.581 13.989,176.827 11.088 C 174.862 9.569,170.108 7.393,167.375 6.762 C 162.284 5.585,155.977 5.203,151.116 5.776 M160.786 13.384 C 163.804 13.714,164.725 13.866,164.842 14.055 C 164.905 14.157,165.191 14.240,165.478 14.240 C 165.765 14.240,166.165 14.325,166.368 14.428 C 166.571 14.531,166.977 14.712,167.269 14.830 C 171.113 16.380,176.408 20.059,176.408 21.180 C 176.408 21.338,176.520 21.467,176.656 21.467 C 176.792 21.467,176.836 21.534,176.753 21.617 C 176.671 21.700,173.570 21.778,169.864 21.790 C 162.050 21.816,158.933 22.165,153.454 23.624 C 152.577 23.858,151.382 24.176,150.797 24.331 C 149.386 24.706,147.825 25.247,146.652 25.767 C 146.126 26.001,145.361 26.334,144.952 26.509 C 144.016 26.908,141.973 27.828,141.552 28.041 C 141.376 28.129,141.041 28.297,140.808 28.414 C 139.456 29.090,137.599 30.113,136.451 30.814 C 131.040 34.118,127.681 36.416,124.678 38.868 C 123.872 39.526,122.820 40.371,122.340 40.747 C 113.056 48.008,99.112 62.080,90.517 72.862 C 89.708 73.877,88.624 75.234,88.109 75.877 C 87.594 76.520,86.781 77.548,86.302 78.162 C 85.823 78.775,85.338 79.277,85.224 79.277 C 85.109 79.277,85.016 79.382,85.016 79.510 C 85.016 79.832,84.249 80.777,84.104 80.632 C 84.039 80.567,84.115 80.149,84.272 79.702 C 84.430 79.256,84.511 78.844,84.454 78.786 C 84.396 78.728,84.441 78.504,84.553 78.288 C 84.806 77.802,85.650 75.919,85.872 75.345 C 86.203 74.492,87.395 71.912,88.033 70.670 C 91.019 64.849,91.787 63.431,92.480 62.454 C 92.700 62.144,92.880 61.844,92.880 61.789 C 92.880 61.733,93.225 61.127,93.647 60.440 C 94.069 59.754,94.616 58.858,94.863 58.448 C 95.832 56.841,100.345 50.206,101.152 49.203 C 101.621 48.618,102.411 47.566,102.906 46.865 C 106.051 42.411,114.642 33.240,119.313 29.350 C 126.130 23.672,138.080 16.366,140.550 16.366 C 140.704 16.366,140.920 16.287,141.031 16.191 C 141.142 16.095,141.950 15.797,142.827 15.528 C 143.704 15.260,144.612 14.963,144.846 14.868 C 145.283 14.692,146.068 14.508,147.184 14.319 C 147.535 14.260,148.013 14.128,148.247 14.025 C 148.715 13.820,149.500 13.711,152.796 13.395 C 154.013 13.278,155.065 13.123,155.134 13.050 C 155.266 12.912,157.893 13.067,160.786 13.384 M152.089 120.988 C 151.454 124.070,150.881 130.252,150.268 140.622 C 149.635 151.347,150.526 169.648,152.195 180.196 C 152.423 181.636,152.554 182.905,152.486 183.015 C 152.318 183.287,149.749 184.322,146.121 185.581 C 145.770 185.703,145.292 185.884,145.058 185.983 C 144.342 186.287,137.099 188.665,135.069 189.263 C 129.899 190.786,127.654 191.311,125.552 191.489 C 123.080 191.698,122.439 192.384,123.615 193.560 L 124.169 194.114 128.769 193.981 C 135.652 193.782,145.310 192.514,153.388 190.748 C 154.010 190.612,154.074 190.749,154.884 193.943 C 155.270 195.462,155.774 197.327,156.005 198.087 C 156.236 198.847,156.752 200.569,157.152 201.913 C 158.188 205.394,158.834 207.205,160.713 211.890 C 161.624 214.163,162.337 216.055,162.296 216.095 C 162.256 216.135,161.326 215.932,160.230 215.644 C 156.144 214.569,152.982 214.087,145.484 213.393 C 137.814 212.683,126.184 214.044,117.185 216.704 C 114.804 217.408,114.795 217.406,115.000 216.312 C 115.094 215.816,115.279 214.740,115.411 213.921 C 115.699 212.143,115.884 211.154,116.582 207.651 C 117.507 203.009,118.456 199.063,120.187 192.667 C 120.771 190.509,124.118 179.867,124.665 178.427 C 124.976 177.609,125.515 176.079,125.862 175.027 C 126.426 173.316,127.314 170.945,129.243 165.994 C 129.585 165.117,129.864 164.327,129.863 164.238 C 129.862 164.149,130.064 163.623,130.312 163.069 C 131.049 161.417,131.295 160.841,131.737 159.724 C 131.969 159.139,132.502 157.919,132.923 157.013 C 133.343 156.106,133.688 155.325,133.688 155.276 C 133.688 155.227,134.171 154.151,134.763 152.886 C 135.354 151.620,136.191 149.819,136.622 148.884 C 138.281 145.288,144.896 132.332,145.901 130.712 C 146.155 130.303,146.825 129.107,147.390 128.055 C 147.955 127.003,148.580 125.903,148.779 125.611 C 149.078 125.170,149.970 123.572,151.210 121.254 C 151.855 120.047,152.312 119.909,152.089 120.988 M146.212 122.991 C 143.979 126.629,142.920 128.479,139.905 134.006 C 137.571 138.285,131.050 151.614,130.067 154.113 C 129.603 155.294,128.688 157.430,127.846 159.299 C 127.583 159.883,127.121 161.031,126.819 161.849 C 126.518 162.667,125.972 164.054,125.606 164.931 C 123.886 169.052,118.757 183.966,117.447 188.656 C 116.378 192.481,114.564 199.385,114.411 200.213 C 114.356 200.505,114.039 201.892,113.705 203.294 C 112.769 207.227,112.096 210.708,111.340 215.515 C 110.823 218.803,110.816 218.831,110.630 218.408 C 110.464 218.034,110.713 214.665,111.165 211.158 C 111.701 207.006,111.822 206.091,112.126 203.932 C 112.428 201.779,112.679 200.356,113.304 197.237 C 113.618 195.673,115.173 189.192,115.396 188.523 C 115.493 188.231,115.690 187.561,115.834 187.035 C 115.978 186.509,116.171 185.840,116.262 185.547 C 116.353 185.255,116.639 184.299,116.898 183.422 C 119.164 175.736,123.332 164.697,127.570 155.154 C 131.630 146.014,140.960 129.399,145.772 122.742 C 147.296 120.633,147.565 120.785,146.212 122.991 M220.072 131.722 C 221.235 134.469,221.566 135.235,222.553 137.460 C 222.774 137.957,223.155 138.818,223.400 139.373 C 225.458 144.041,229.555 152.180,233.589 159.617 C 237.948 167.655,240.227 171.680,242.642 175.609 C 243.269 176.630,243.783 177.524,243.783 177.595 C 243.783 177.666,243.985 178.007,244.231 178.353 C 244.931 179.336,244.728 179.305,240.026 177.726 C 232.881 175.325,221.603 173.016,220.514 173.729 C 219.837 174.173,219.797 175.117,220.432 175.684 C 220.682 175.907,221.414 176.841,222.060 177.760 C 224.577 181.339,231.620 184.460,248.884 189.646 L 251.966 190.572 256.111 196.739 C 260.154 202.757,265.580 210.593,266.778 212.145 C 267.682 213.317,267.627 213.351,264.999 213.226 C 261.687 213.069,253.837 213.624,250.478 214.253 C 241.287 215.973,235.373 218.021,230.074 221.318 C 228.390 222.365,227.798 223.132,228.251 223.678 C 228.707 224.227,229.466 224.073,230.804 223.160 C 238.671 217.790,256.489 214.072,267.969 215.404 L 269.297 215.558 270.249 216.892 C 271.509 218.658,271.483 218.828,269.694 220.484 C 267.989 222.062,267.489 222.235,265.228 222.025 C 264.425 221.950,262.356 221.997,260.630 222.129 C 258.904 222.260,256.973 222.380,256.339 222.395 L 255.187 222.423 254.693 220.421 C 254.120 218.098,253.808 217.540,252.819 217.068 C 251.196 216.294,250.304 217.657,250.159 221.128 L 250.053 223.680 248.247 224.282 C 244.060 225.675,240.377 227.283,238.538 228.520 C 238.049 228.849,237.589 229.118,237.516 229.118 C 237.253 229.118,234.716 230.918,233.198 232.182 C 230.575 234.368,229.692 235.825,230.501 236.634 C 231.174 237.308,231.597 237.221,234.483 235.820 C 237.414 234.397,240.170 233.298,240.352 233.480 C 240.408 233.536,240.102 234.392,239.672 235.382 C 235.338 245.360,238.405 259.159,246.121 264.398 C 255.899 271.038,268.314 268.262,273.682 258.236 C 277.271 251.534,277.527 241.511,274.285 234.684 C 273.875 233.820,273.589 233.034,273.650 232.936 C 273.866 232.587,277.926 234.236,280.871 235.870 C 284.169 237.700,283.929 237.437,285.292 240.701 C 289.792 251.473,290.024 261.363,286.020 271.732 C 282.656 280.443,275.016 289.701,268.507 292.955 C 265.740 294.338,265.323 295.017,266.448 296.301 C 266.710 296.602,266.521 296.860,264.820 298.529 C 262.818 300.491,262.486 301.200,263.500 301.344 C 263.864 301.395,264.539 300.890,266.263 299.275 L 268.544 297.138 270.203 297.134 C 271.116 297.132,272.312 297.029,272.860 296.905 C 275.243 296.366,275.841 296.208,277.046 295.802 C 279.002 295.143,282.563 293.279,284.801 291.744 C 287.267 290.051,287.257 290.042,285.799 292.617 C 283.585 296.527,280.002 300.673,277.046 302.743 C 273.982 304.890,272.427 305.429,266.844 306.282 C 264.868 306.584,264.400 306.902,264.400 307.942 C 264.400 310.925,274.877 312.104,282.412 309.969 C 284.176 309.469,277.829 318.237,274.676 320.657 C 264.936 328.131,256.140 333.497,242.295 340.409 C 215.883 353.597,203.760 354.965,180.765 347.355 C 163.094 341.507,135.728 326.021,127.652 317.298 C 125.871 315.374,125.567 314.877,126.279 315.045 C 129.656 315.847,138.237 316.009,140.886 315.321 C 144.754 314.316,145.322 311.077,141.731 310.497 C 133.675 309.197,129.142 306.915,123.209 301.171 C 119.673 297.749,117.038 294.102,114.329 288.880 C 112.540 285.432,112.595 285.123,114.616 287.280 C 120.325 293.377,125.644 297.082,132.260 299.574 C 133.612 300.083,133.656 300.222,132.756 301.144 C 131.950 301.969,131.818 302.402,132.242 302.827 C 132.669 303.253,132.941 303.129,134.243 301.914 L 135.494 300.745 136.876 300.904 C 137.635 300.991,139.245 301.063,140.453 301.063 L 142.650 301.063 143.270 300.369 C 144.395 299.109,143.503 297.555,141.247 296.844 C 139.555 296.311,139.527 296.346,145.483 291.582 C 151.033 287.143,151.395 286.751,150.576 286.071 C 150.303 285.845,150.133 285.883,149.566 286.296 C 148.089 287.372,144.947 289.863,140.397 293.566 L 138.117 295.422 137.231 294.970 C 136.011 294.348,133.706 292.804,132.983 292.125 C 132.247 291.433,132.186 291.515,135.494 288.730 C 138.582 286.130,138.944 285.735,138.652 285.272 C 138.096 284.388,137.755 284.591,133.409 288.383 C 130.689 290.757,130.944 290.774,128.378 288.063 C 124.245 283.697,121.139 278.922,118.171 272.370 C 117.222 270.275,114.646 262.284,114.335 260.468 C 114.254 260.000,114.043 258.900,113.865 258.023 C 112.815 252.849,112.223 242.920,112.912 242.036 C 113.817 240.874,122.456 236.021,126.432 234.441 C 128.915 233.454,132.205 232.453,132.383 232.631 C 132.447 232.695,132.335 233.007,132.132 233.324 C 128.256 239.385,127.575 249.018,130.536 255.898 C 135.228 266.803,146.681 271.060,157.407 265.884 C 166.244 261.620,170.229 246.624,165.528 235.324 C 164.747 233.446,164.780 233.399,166.465 234.002 C 170.636 235.493,176.353 238.685,177.660 240.254 C 182.462 246.016,190.751 252.106,198.512 255.573 C 199.741 256.122,200.846 257.002,200.849 257.434 C 200.854 258.178,207.700 268.478,210.616 272.129 C 216.518 279.519,222.876 284.199,230.276 286.599 C 233.376 287.605,234.431 287.493,234.431 286.159 C 234.431 285.173,232.664 283.741,231.447 283.741 C 231.332 283.741,231.072 283.652,230.869 283.543 C 230.666 283.434,229.643 282.944,228.597 282.453 C 227.550 281.963,226.068 281.159,225.302 280.667 C 224.537 280.175,223.367 279.424,222.701 279.000 C 219.357 276.864,216.004 273.370,210.775 266.573 C 210.660 266.424,210.622 266.247,210.690 266.178 C 210.834 266.034,211.285 266.481,213.177 268.638 C 220.865 277.403,234.403 285.446,237.154 282.882 C 238.204 281.904,237.716 280.959,235.388 279.459 C 231.973 277.258,226.871 271.544,224.968 267.789 C 224.056 265.989,224.201 265.939,226.460 267.275 C 231.087 270.010,237.818 272.797,244.102 274.580 C 245.960 275.107,246.761 275.296,249.309 275.808 C 249.601 275.867,250.970 276.040,252.350 276.193 C 254.939 276.479,255.685 276.790,255.685 277.581 C 255.685 279.460,258.281 279.446,258.581 277.565 C 258.655 277.104,258.727 276.723,258.741 276.719 C 258.756 276.714,259.389 276.666,260.149 276.611 C 260.909 276.557,261.882 276.465,262.313 276.407 C 263.177 276.290,263.393 276.498,264.411 278.427 C 265.436 280.367,266.346 280.828,267.335 279.907 C 268.060 279.232,267.930 278.262,266.805 275.924 C 265.361 272.927,264.607 272.497,263.049 273.781 L 262.239 274.449 260.503 274.018 C 258.653 273.559,253.348 271.164,253.348 270.788 C 253.348 270.508,253.273 270.504,254.875 270.869 C 259.485 271.921,271.545 272.701,273.117 272.049 C 273.902 271.724,274.163 270.923,273.665 270.372 C 273.351 270.025,272.770 269.973,267.954 269.860 C 262.169 269.725,258.439 269.372,254.091 268.549 C 252.572 268.261,250.755 267.927,250.053 267.807 C 246.936 267.272,239.037 260.243,234.281 253.773 C 232.768 251.714,229.543 246.851,229.543 246.628 C 229.543 246.561,229.351 246.236,229.117 245.907 C 227.238 243.268,222.836 233.366,221.079 227.825 C 215.849 211.330,214.411 188.678,216.586 157.067 C 216.703 155.372,216.941 151.642,217.115 148.778 C 217.289 145.914,217.523 142.471,217.635 141.126 C 217.748 139.782,217.940 137.009,218.062 134.963 C 218.339 130.305,218.491 128.799,218.684 128.799 C 218.767 128.799,219.392 130.114,220.072 131.722 M227.524 176.735 C 231.842 177.533,237.586 179.014,240.276 180.022 C 241.562 180.504,243.424 181.181,244.415 181.527 C 246.221 182.158,246.739 182.450,246.491 182.698 C 246.354 182.835,244.907 182.523,236.451 180.533 C 231.182 179.293,230.451 179.197,230.250 179.723 C 230.065 180.204,229.211 179.990,227.097 178.933 C 224.466 177.617,222.471 175.731,224.083 176.083 C 224.339 176.139,225.887 176.432,227.524 176.735 M166.171 181.668 C 166.276 181.873,166.430 182.410,166.511 182.862 C 166.966 185.376,172.120 199.609,175.021 206.361 C 177.169 211.361,180.437 218.123,183.914 224.761 C 190.072 236.519,189.792 235.816,187.812 234.550 C 176.890 227.563,170.264 215.207,166.550 194.899 C 165.753 190.541,165.601 187.013,166.178 186.279 C 166.644 185.686,166.558 184.890,165.971 184.358 C 165.657 184.073,165.569 183.699,165.569 182.645 C 165.569 181.314,165.797 180.944,166.171 181.668 M239.375 182.980 C 240.806 183.322,243.220 183.852,244.740 184.159 C 246.259 184.466,247.659 184.763,247.851 184.820 C 248.167 184.914,249.309 186.414,249.309 186.735 C 249.309 186.972,246.472 186.131,239.426 183.806 C 234.714 182.251,234.690 181.862,239.375 182.980 M153.326 186.853 C 153.650 188.532,154.080 188.344,147.078 189.583 C 142.975 190.309,141.738 190.480,141.597 190.340 C 141.392 190.135,141.921 189.848,143.358 189.385 C 145.665 188.641,147.006 188.122,149.662 186.944 C 152.839 185.534,153.070 185.528,153.326 186.853 M147.184 215.532 C 153.505 215.983,158.491 216.943,162.744 218.527 L 163.851 218.940 165.134 221.532 C 165.839 222.957,167.269 225.558,168.311 227.311 C 170.311 230.679,170.380 230.965,168.971 230.075 C 168.487 229.770,167.763 229.334,167.361 229.107 C 166.960 228.879,166.273 228.488,165.834 228.238 C 164.436 227.440,161.890 226.226,160.574 225.731 C 159.872 225.467,159.107 225.177,158.874 225.087 C 158.640 224.998,157.875 224.713,157.173 224.456 C 156.472 224.198,155.755 223.913,155.579 223.821 C 155.327 223.688,155.238 223.024,155.154 220.629 C 155.060 217.952,155.000 217.571,154.635 217.304 C 153.153 216.223,151.537 217.818,150.678 221.210 C 150.302 222.693,150.207 222.749,148.455 222.514 C 147.639 222.404,144.867 222.252,142.295 222.175 L 137.620 222.036 136.270 220.742 C 135.528 220.030,134.497 218.874,133.979 218.172 C 133.462 217.471,132.791 216.639,132.488 216.323 L 131.937 215.749 132.459 215.618 C 134.328 215.148,141.245 215.108,147.184 215.532 M130.925 216.021 C 130.925 216.182,130.781 216.433,130.606 216.578 C 130.142 216.963,130.209 218.487,130.790 220.771 C 131.348 222.960,131.419 222.802,129.756 223.067 C 128.912 223.202,126.401 223.703,124.973 224.022 C 122.854 224.495,116.282 226.626,115.190 227.194 C 115.010 227.287,114.542 227.434,114.148 227.521 L 113.432 227.678 113.582 226.645 C 113.740 225.557,114.046 223.042,114.271 220.990 C 114.345 220.319,114.521 219.673,114.662 219.556 C 115.321 219.010,125.457 216.528,129.330 215.965 C 130.032 215.863,130.677 215.768,130.765 215.754 C 130.853 215.740,130.925 215.860,130.925 216.021 M39.501 218.544 C 39.467 218.807,39.496 219.118,39.565 219.235 C 39.686 219.440,39.588 220.347,39.107 223.486 C 38.982 224.304,38.788 225.643,38.676 226.461 C 38.564 227.279,38.372 228.618,38.249 229.437 C 37.814 232.340,37.236 237.431,36.559 244.315 C 35.385 256.254,35.478 270.625,36.800 281.766 C 37.110 284.383,37.131 284.336,34.386 287.279 C 31.155 290.745,27.792 293.601,26.447 294.022 C 25.300 294.380,22.683 288.953,20.414 281.509 C 18.887 276.498,18.480 266.999,19.558 261.530 C 19.673 260.946,19.908 259.743,20.080 258.857 C 20.840 254.939,22.482 249.435,23.943 245.909 C 24.354 244.915,24.769 243.911,24.864 243.677 C 25.288 242.632,25.838 241.407,26.725 239.532 C 27.885 237.079,27.931 236.984,28.216 236.451 C 28.341 236.217,28.789 235.308,29.212 234.431 C 29.634 233.555,30.232 232.407,30.539 231.881 C 30.846 231.355,31.382 230.399,31.730 229.756 C 32.660 228.038,32.769 227.852,33.638 226.510 C 34.074 225.836,34.431 225.237,34.431 225.179 C 34.431 225.077,34.917 224.302,36.958 221.148 C 38.652 218.531,39.633 217.526,39.501 218.544 M274.389 222.980 C 274.389 223.083,274.198 223.167,273.964 223.167 C 273.555 223.167,273.388 222.751,273.679 222.460 C 273.840 222.299,274.389 222.702,274.389 222.980 M74.052 234.913 C 74.043 235.116,74.019 235.760,73.999 236.344 C 73.968 237.293,73.913 237.407,73.486 237.410 C 72.762 237.413,70.500 238.752,70.138 239.391 C 69.395 240.703,70.622 241.150,72.228 240.151 C 73.814 239.166,74.010 239.399,73.830 242.058 L 73.692 244.102 72.559 245.123 C 70.649 246.844,69.322 250.235,68.548 255.369 C 67.372 263.172,70.479 276.055,72.943 273.591 C 73.381 273.153,73.397 273.059,73.135 272.423 C 70.526 266.093,69.802 261.036,70.674 255.229 C 71.215 251.632,73.225 246.587,73.865 247.226 C 73.911 247.273,74.096 250.750,74.275 254.952 C 74.453 259.155,74.745 264.028,74.922 265.781 C 75.100 267.535,75.344 269.926,75.465 271.095 C 75.734 273.690,77.104 283.310,77.372 284.485 C 77.629 285.608,77.626 285.654,77.284 285.654 C 77.123 285.654,76.083 284.707,74.973 283.550 C 62.836 270.906,59.263 251.260,67.022 239.841 C 69.052 236.854,74.130 233.294,74.052 234.913 M322.564 237.003 C 323.413 237.271,324.341 238.781,326.539 243.467 C 330.769 252.489,333.924 265.005,334.757 276.076 L 334.978 279.023 333.554 281.010 C 328.105 288.612,317.701 297.737,309.637 301.988 C 306.894 303.433,303.079 304.349,299.543 304.410 C 295.637 304.478,295.094 303.824,297.467 301.913 C 300.925 299.128,306.258 293.307,309.273 289.027 C 311.347 286.082,311.339 286.088,312.201 286.702 C 314.355 288.236,315.964 286.114,313.957 284.386 C 312.863 283.443,312.854 283.597,314.131 281.196 C 314.714 280.100,315.539 278.383,315.965 277.380 C 316.391 276.378,316.914 275.166,317.128 274.686 C 317.750 273.290,319.155 268.939,319.729 266.631 C 320.490 263.571,321.084 260.256,321.216 258.342 C 321.312 256.952,321.622 256.960,323.254 258.397 C 325.979 260.796,327.089 265.577,326.147 270.864 C 325.758 273.044,326.101 273.779,327.263 273.258 C 328.141 272.864,328.476 271.156,328.478 267.056 C 328.482 260.906,326.874 257.521,322.582 254.642 L 321.573 253.965 321.573 251.150 L 321.573 248.335 323.588 246.270 C 325.754 244.051,326.109 243.388,325.497 242.712 C 324.817 241.960,324.134 242.180,322.832 243.571 C 321.377 245.123,321.150 245.158,321.141 243.836 C 321.137 243.281,320.992 241.870,320.818 240.701 C 320.644 239.532,320.441 238.108,320.367 237.537 L 320.231 236.497 321.061 236.644 C 321.518 236.725,322.194 236.886,322.564 237.003 M138.778 251.144 C 139.143 251.359,139.629 252.044,140.065 252.956 C 143.278 259.685,152.382 260.711,156.331 254.790 C 157.924 252.401,159.345 251.970,160.808 253.433 C 162.190 254.815,161.374 257.172,158.571 259.897 C 151.393 266.872,139.288 264.482,135.428 255.327 C 134.182 252.374,136.327 249.696,138.778 251.144 M270.191 251.480 C 272.572 253.144,268.805 259.731,263.967 262.364 C 258.675 265.244,251.466 264.042,246.957 259.527 C 243.866 256.433,243.473 253.780,245.909 252.454 C 247.342 251.674,248.323 252.099,249.193 253.878 C 252.424 260.481,262.415 260.119,265.855 253.274 C 267.041 250.913,268.510 250.305,270.191 251.480 M156.111 267.716 C 152.287 268.615,139.953 269.926,135.316 269.926 C 132.817 269.926,131.811 270.688,132.846 271.798 C 133.911 272.942,147.223 271.858,157.173 269.818 C 159.675 269.305,160.565 268.517,159.710 267.572 C 159.252 267.066,158.794 267.085,156.111 267.716 M158.849 271.326 C 157.660 271.910,157.510 273.140,158.496 274.229 C 159.020 274.808,160.138 274.711,160.665 274.041 C 161.860 272.522,160.514 270.509,158.849 271.326 M152.497 272.594 C 151.095 272.875,148.943 273.341,147.715 273.630 C 143.994 274.507,142.915 274.558,142.385 273.885 C 141.248 272.439,139.845 273.347,138.807 276.202 C 137.879 278.752,137.785 279.393,138.262 279.920 C 139.145 280.896,140.179 280.237,141.438 277.896 L 142.123 276.621 143.485 276.495 C 144.233 276.426,145.396 276.293,146.068 276.200 L 147.290 276.031 147.291 276.963 C 147.294 278.899,147.862 279.915,148.944 279.915 C 149.804 279.915,150.137 279.178,150.084 277.390 C 150.024 275.366,149.940 275.442,152.922 274.840 C 156.071 274.205,157.230 273.274,155.969 272.390 C 155.386 271.982,155.628 271.968,152.497 272.594 M272.736 273.019 C 271.153 274.128,274.954 278.388,276.714 277.477 C 278.082 276.770,277.567 275.371,275.350 273.764 C 273.743 272.599,273.454 272.517,272.736 273.019 M130.393 273.574 C 127.680 275.237,127.065 276.298,128.202 277.356 C 129.052 278.148,131.344 276.883,132.921 274.751 C 134.023 273.261,132.251 272.436,130.393 273.574 M260.568 281.340 C 259.920 281.786,254.923 286.240,251.700 289.242 C 249.364 291.420,249.045 291.893,249.564 292.412 C 250.141 292.989,250.523 292.751,253.357 290.045 C 255.138 288.344,258.735 285.006,260.946 283.001 C 262.172 281.889,262.214 281.798,261.728 281.312 C 261.308 280.892,261.214 280.895,260.568 281.340 M269.655 284.134 C 269.161 284.584,267.944 285.647,266.950 286.498 C 262.662 290.168,254.835 297.465,254.835 297.793 C 254.835 298.007,255.461 298.618,255.681 298.618 C 255.992 298.618,258.181 296.693,266.190 289.373 C 267.853 287.853,269.707 286.227,270.311 285.760 C 271.475 284.858,271.841 284.150,271.411 283.632 C 271.004 283.141,270.627 283.249,269.655 284.134 M201.689 284.284 C 200.638 285.403,201.364 287.566,202.791 287.566 C 203.414 287.566,204.463 286.434,204.463 285.762 C 204.463 284.035,202.771 283.133,201.689 284.284 M93.078 290.595 C 93.894 291.793,94.876 293.174,95.261 293.663 C 95.647 294.153,96.536 295.299,97.237 296.210 C 97.938 297.121,99.779 299.171,101.328 300.765 C 102.877 302.359,104.145 303.723,104.145 303.797 C 104.145 304.306,100.125 302.906,96.775 301.230 C 92.745 299.214,92.933 299.424,92.450 296.387 C 92.226 294.984,91.947 293.262,91.829 292.561 C 91.522 290.733,91.321 288.417,91.469 288.417 C 91.538 288.417,92.263 289.397,93.078 290.595 M153.135 293.565 C 152.434 294.173,150.951 295.488,149.841 296.488 C 148.730 297.487,147.032 299.007,146.068 299.866 C 144.350 301.395,144.058 301.890,144.570 302.402 C 145.010 302.842,145.289 302.697,147.002 301.139 C 147.921 300.304,150.230 298.277,152.135 296.634 C 155.109 294.069,155.590 293.570,155.536 293.104 C 155.424 292.145,154.587 292.305,153.135 293.565 M170.670 299.322 C 169.864 299.724,169.639 300.613,170.165 301.318 C 171.386 302.954,179.431 306.496,189.798 309.962 C 200.391 313.504,205.543 313.508,216.259 309.982 C 227.850 306.169,235.919 302.256,235.919 300.449 C 235.919 298.984,234.704 298.833,232.616 300.041 C 227.164 303.193,219.835 306.139,211.371 308.579 C 204.306 310.615,198.303 310.142,189.362 306.843 C 185.543 305.434,183.709 304.782,183.564 304.782 C 183.483 304.782,182.964 304.581,182.410 304.336 C 181.856 304.090,181.211 303.813,180.978 303.719 C 179.861 303.271,174.267 300.508,173.326 299.940 C 172.003 299.141,171.342 298.987,170.670 299.322 " stroke="none" fill="#0a0a0a" fill-rule="evenodd"></path></svg>
